<?xml version="1.0" encoding="UTF-8"?>
<svg version="1.1" xmlns="http://www.w3.org/2000/svg" width="256" height="100">
<path d="M0 0 C84.48 0 168.96 0 256 0 C256 33 256 66 256 100 C171.52 100 87.04 100 0 100 C0 67 0 34 0 0 Z " fill="#FBFDFE" transform="translate(0,0)"/>
<path d="M0 0 C7.90201128 -0.02533211 15.8040121 -0.04285934 23.70605469 -0.05493164 C26.39486852 -0.05939946 29.08365882 -0.06636119 31.77246094 -0.07543945 C35.6347725 -0.08755371 39.49704792 -0.09323945 43.359375 -0.09765625 C44.5636615 -0.10281754 45.767948 -0.10797882 47.00872803 -0.11329651 C48.12958801 -0.11337204 49.250448 -0.11344757 50.40527344 -0.11352539 C51.39122498 -0.115746 52.37717651 -0.11796661 53.39300537 -0.12025452 C55.80014629 -0.00921878 57.74426981 0.16077925 60 1 C61.921875 3.65234375 61.921875 3.65234375 63.75 6.9375 C64.36359375 8.01902344 64.9771875 9.10054687 65.609375 10.21484375 C67 13 67 13 67 15 C66.195625 14.979375 65.39125 14.95875 64.5625 14.9375 C62.06645115 14.70366379 62.06645115 14.70366379 61 16 C55.47058824 16.23529412 55.47058824 16.23529412 53 15 C53 15.66 53 16.32 53 17 C51.56429734 17.81567174 50.12636566 18.62742093 48.6875 19.4375 C47.48673828 20.11619141 47.48673828 20.11619141 46.26171875 20.80859375 C44 22 44 22 41 23 C40.29848848 24.3153341 39.63474075 25.65117592 39 27 C38.505 27.45375 38.01 27.9075 37.5 28.375 C35.41449181 30.63430054 34.88500958 33.09211138 34 36 C33.67 36.33 33.34 36.66 33 37 C33 39.31 33 41.62 33 44 C17.16 44.495 17.16 44.495 1 45 C-0.15410254 42.69179492 -0.1210297 41.39215724 -0.11352539 38.82568359 C-0.11344986 37.96494232 -0.11337433 37.10420105 -0.11329651 36.21737671 C-0.10813522 35.28712677 -0.10297394 34.35687683 -0.09765625 33.3984375 C-0.0962413 32.44683746 -0.09482635 31.49523743 -0.09336853 30.51480103 C-0.08776012 27.46816903 -0.07520619 24.42160987 -0.0625 21.375 C-0.05748608 19.31250106 -0.05292299 17.25000097 -0.04882812 15.1875 C-0.03778796 10.12497183 -0.02051767 5.06249827 0 0 Z " fill="#FEFDFA" transform="translate(0,0)"/>
<path d="M0 0 C2.578125 -0.061875 5.15625 -0.12375 7.8125 -0.1875 C9.02450073 -0.22846802 9.02450073 -0.22846802 10.26098633 -0.27026367 C15.48177074 -0.3311761 15.48177074 -0.3311761 17.98046875 1.265625 C19.79505949 4.352515 19.71813782 7.60081433 19 11 C16.9375 13.5 16.9375 13.5 14 15 C10.1875 15.25 10.1875 15.25 7 15 C7 17.31 7 19.62 7 22 C4.69 22 2.38 22 0 22 C0 14.74 0 7.48 0 0 Z " fill="#1B599D" transform="translate(58,41)"/>
<path d="M0 0 C7.43526601 -0.14841673 14.72483517 0.30329237 22.125 1 C23.176875 1.09539063 24.22875 1.19078125 25.3125 1.2890625 C27.87539348 1.52205282 30.43784031 1.75909676 33 2 C33 4.31 33 6.62 33 9 C17.16 9.495 17.16 9.495 1 10 C-0.60725635 6.78548731 -0.05748185 3.56387464 0 0 Z " fill="#FDB344" transform="translate(0,35)"/>
<path d="M0 0 C2.31 0 4.62 0 7 0 C8.19287411 3.87684087 9 6.91621923 9 11 C9.66 11 10.32 11 11 11 C11.99 7.37 12.98 3.74 14 0 C15.98 0 17.96 0 20 0 C19.32798701 4.55708812 18.27128438 8.88637387 17 13.3125 C16.4740625 15.16294922 16.4740625 15.16294922 15.9375 17.05078125 C15 20 15 20 14 21 C11.32941149 21.14115161 8.67567762 21.04247107 6 21 C5.73445313 19.98679687 5.46890625 18.97359375 5.1953125 17.9296875 C4.83864311 16.57809823 4.48186657 15.22653722 4.125 13.875 C3.86396484 12.87726562 3.86396484 12.87726562 3.59765625 11.859375 C2.5368867 7.85202336 1.35567689 3.92047101 0 0 Z " fill="#155398" transform="translate(78,41)"/>
<path d="M0 0 C0.10806144 2.91765891 0.18732877 5.83131125 0.25 8.75 C0.30027344 9.9875 0.30027344 9.9875 0.3515625 11.25 C0.44999222 17.35264277 0.44999222 17.35264277 -1.78125 20.5625 C-4.8957428 22.5803404 -7.37504812 22.27884245 -11 22 C-11.66 20.68 -12.32 19.36 -13 18 C-10.03 18.33 -7.06 18.66 -4 19 C-3.34 17.35 -2.68 15.7 -2 14 C-2.99 14.66 -3.98 15.32 -5 16 C-7.4375 16.4375 -7.4375 16.4375 -10 16 C-12.80449388 13.42289752 -13.87201338 11.76791972 -14.5 8 C-13.88087611 4.28525663 -12.6428646 2.6428646 -10 0 C-6.30581799 -1.231394 -3.7943739 -0.64432764 0 0 Z " fill="#225FA2" transform="translate(160,47)"/>
<path d="M0 0 C0.81434143 2.85160391 1.11881242 5.36626131 1.09765625 8.328125 C1.09443359 9.12734375 1.09121094 9.9265625 1.08789062 10.75 C1.07951172 11.575 1.07113281 12.4 1.0625 13.25 C1.05798828 14.09046875 1.05347656 14.9309375 1.04882812 15.796875 C1.03707961 17.86461401 1.01914522 19.93231624 1 22 C-3.95 22 -8.9 22 -14 22 C-13.4477579 14.13055007 -11.35886989 8.86088615 -5.375 3.625 C-3.59639572 2.17260262 -2.0555845 1.02779225 0 0 Z " fill="#87D2F0" transform="translate(51,21)"/>
<path d="M0 0 C3.5665792 1.73239022 6.91904124 3.82693373 10.3125 5.875 C11.24384766 6.41769531 12.17519531 6.96039063 13.13476562 7.51953125 C14.01455078 8.04675781 14.89433594 8.57398438 15.80078125 9.1171875 C16.60684814 9.59784668 17.41291504 10.07850586 18.2434082 10.57373047 C18.8230835 11.04439941 19.40275879 11.51506836 20 12 C20 12.99 20 13.98 20 15 C19 16 19 16 16.27490234 16.19921875 C12.82544661 15.98938157 10.70993865 15.27526525 7.6015625 13.8125 C6.62832031 13.36132812 5.65507812 12.91015625 4.65234375 12.4453125 C3.65332031 11.96835937 2.65429688 11.49140625 1.625 11 C0.60277344 10.52304687 -0.41945313 10.04609375 -1.47265625 9.5546875 C-3.98672959 8.37988687 -6.49538242 7.19479347 -9 6 C-9 2 -9 2 -7.3125 0.1875 C-4.32490044 -1.34667275 -3.19633166 -0.88674509 0 0 Z " fill="#FDB542" transform="translate(25,6)"/>
<path d="M0 0 C4.95 0 9.9 0 15 0 C15 5.28 15 10.56 15 16 C11.7 16 8.4 16 5 16 C0 7.875 0 7.875 0 0 Z " fill="#8BD5F4" transform="translate(37,45)"/>
<path d="M0 0 C0 1.98 0 3.96 0 6 C-3.20636973 6.67635064 -6.41536689 7.33932448 -9.625 8 C-10.52863281 8.19078125 -11.43226562 8.3815625 -12.36328125 8.578125 C-16.98203556 9.52210398 -21.25647172 10.25214768 -26 10 C-26.33 7.03 -26.66 4.06 -27 1 C-17.98865693 0.3668316 -9.04028922 -0.1723784 0 0 Z " fill="#FDB744" transform="translate(33,45)"/>
<path d="M0 0 C5.48505778 0 6.91677056 0.09014625 11.375 2.5 C12.68597656 3.19609375 12.68597656 3.19609375 14.0234375 3.90625 C14.67570312 4.2671875 15.32796875 4.628125 16 5 C16 8.3 16 11.6 16 15 C10.72 15 5.44 15 0 15 C0 10.05 0 5.1 0 0 Z " fill="#7ACCF0" transform="translate(62,19)"/>
<path d="M0 0 C0.66 0.33 1.32 0.66 2 1 C2 1.66 2 2.32 2 3 C0.25585937 4.42041016 0.25585937 4.42041016 -2.15625 6.0390625 C-3.01347656 6.61914062 -3.87070312 7.19921875 -4.75390625 7.796875 C-5.66011719 8.40015625 -6.56632812 9.0034375 -7.5 9.625 C-8.40621094 10.23601562 -9.31242187 10.84703125 -10.24609375 11.4765625 C-12.49337058 12.99051742 -14.74474343 14.49796882 -17 16 C-19.49361571 14.79618552 -21.68143083 13.54571278 -24 12 C-24 11.34 -24 10.68 -24 10 C-21.41732587 8.54048881 -18.83389259 7.08235119 -16.25 5.625 C-15.52039062 5.2125 -14.79078125 4.8 -14.0390625 4.375 C-13.33007812 3.97539063 -12.62109375 3.57578125 -11.890625 3.1640625 C-10.91657715 2.61419678 -10.91657715 2.61419678 -9.92285156 2.05322266 C-3.69848558 -1.35611138 -3.69848558 -1.35611138 0 0 Z " fill="#FDB644" transform="translate(44,67)"/>
<path d="M0 0 C5.852795 0.51482919 11.3297637 1.45357192 17 3 C16.34 4.98 15.68 6.96 15 9 C9.39 8.34 3.78 7.68 -2 7 C-1.34 4.69 -0.68 2.38 0 0 Z " fill="#F5634B" transform="translate(19,27)"/>
<path d="M0 0 C0.99 0 1.98 0 3 0 C3.33 1.98 3.66 3.96 4 6 C4.928125 5.79375 5.85625 5.5875 6.8125 5.375 C10 5 10 5 13 7 C13.29296875 10.2578125 13.29296875 10.2578125 13.1875 14.125 C13.16042969 15.40632813 13.13335937 16.68765625 13.10546875 18.0078125 C13.07066406 18.99523437 13.03585938 19.98265625 13 21 C12.34 21 11.68 21 11 21 C10.67 17.04 10.34 13.08 10 9 C8.35 9 6.7 9 5 9 C3.18884044 10.81115956 3.61800552 13.61278227 3.4375 16.0625 C3.35371094 17.16722656 3.26992187 18.27195312 3.18359375 19.41015625 C3.12300781 20.26480469 3.06242188 21.11945312 3 22 C2.01 22 1.02 22 0 22 C0 14.74 0 7.48 0 0 Z " fill="#3D77B7" transform="translate(164,41)"/>
<path d="M0 0 C5.23272633 1.63958758 10.15196636 3.38952035 15 6 C14.34 7.32 13.68 8.64 13 10 C1.47835991 9.22095672 1.47835991 9.22095672 -4 7 C-2.79618552 4.50638429 -1.54571278 2.31856917 0 0 Z " fill="#F5644B" transform="translate(25,18)"/>
<path d="M0 0 C0.66 1.65 1.32 3.3 2 5 C-0.09950586 5.86555948 -2.2047907 6.71711277 -4.3125 7.5625 C-6.07013672 8.27599609 -6.07013672 8.27599609 -7.86328125 9.00390625 C-11 10 -11 10 -14 9 C-15.1875 5.4375 -15.1875 5.4375 -16 2 C-14.27192682 1.66104344 -12.54248026 1.32908475 -10.8125 1 C-9.84957031 0.814375 -8.88664062 0.62875 -7.89453125 0.4375 C-5.2065794 0.03122388 -2.71228981 -0.07933572 0 0 Z " fill="#F6644B" transform="translate(34,53)"/>
<path d="M0 0 C0.66 1.32 1.32 2.64 2 4 C-4.435 6.97 -4.435 6.97 -11 10 C-15 5 -15 5 -15 3 C-13.25531628 2.29911844 -11.50398839 1.61475991 -9.75 0.9375 C-8.77546875 0.55464844 -7.8009375 0.17179687 -6.796875 -0.22265625 C-3.9228047 -1.02145512 -2.66257674 -1.3136164 0 0 Z " fill="#F5634B" transform="translate(38,61)"/>
<path d="M0 0 C2.3125 0.9375 2.3125 0.9375 3.625 3 C3.9653125 3.9590625 3.9653125 3.9590625 4.3125 4.9375 C3.3225 4.9375 2.3325 4.9375 1.3125 4.9375 C1.3125 4.2775 1.3125 3.6175 1.3125 2.9375 C-0.6675 3.2675 -2.6475 3.5975 -4.6875 3.9375 C-3.8925157 6.0956648 -3.8925157 6.0956648 -1.875 6.61328125 C-0.7921875 6.92845703 -0.7921875 6.92845703 0.3125 7.25 C2.5 8.0078125 2.5 8.0078125 4.3125 8.9375 C5.3125 11.625 5.3125 11.625 5.3125 13.9375 C2.88030169 16.18260613 1.59468472 16.90870564 -1.75 17.25 C-4.6875 16.9375 -4.6875 16.9375 -7.6875 14.9375 C-7.6875 13.9475 -7.6875 12.9575 -7.6875 11.9375 C-7.0275 11.9375 -6.3675 11.9375 -5.6875 11.9375 C-5.6875 12.5975 -5.6875 13.2575 -5.6875 13.9375 C-3.0475 14.2675 -0.4075 14.5975 2.3125 14.9375 C2.12293068 12.96261775 2.12293068 12.96261775 1.3125 10.9375 C-0.51497971 9.98728234 -0.51497971 9.98728234 -2.6875 9.5 C-4.875 8.796875 -4.875 8.796875 -6.6875 7.9375 C-7.6875 5.25 -7.6875 5.25 -7.6875 2.9375 C-4.96952643 0.99609031 -3.39009051 -0.07883931 0 0 Z " fill="#2765A8" transform="translate(131.6875,46.0625)"/>
<path d="M0 0 C2.66666667 2 5.33333333 4 8 6 C8.74765625 6.51949219 9.4953125 7.03898438 10.265625 7.57421875 C10.83796875 8.04472656 11.4103125 8.51523438 12 9 C12 9.66 12 10.32 12 11 C8.22949262 12.02471747 6.43926405 12.18650019 2.7890625 10.63671875 C1.74492188 9.99347656 0.70078125 9.35023437 -0.375 8.6875 C-1.43460938 8.05199219 -2.49421875 7.41648437 -3.5859375 6.76171875 C-4.38257813 6.18035156 -5.17921875 5.59898438 -6 5 C-6 4.34 -6 3.68 -6 3 C-4.02 2.01 -2.04 1.02 0 0 Z " fill="#F6664C" transform="translate(41,6)"/>
<path d="M0 0 C4.70588235 0.70588235 4.70588235 0.70588235 6 2 C6.07271741 4.35313555 6.08370868 6.70833668 6.0625 9.0625 C6.05347656 10.35285156 6.04445313 11.64320312 6.03515625 12.97265625 C6.02355469 13.97167969 6.01195313 14.97070312 6 16 C5.34 16 4.68 16 4 16 C3.67 12.04 3.34 8.08 3 4 C1.02 4 -0.96 4 -3 4 C-3.33 8.29 -3.66 12.58 -4 17 C-4.99 17 -5.98 17 -7 17 C-7 11.72 -7 6.44 -7 1 C-5.02 1 -3.04 1 -1 1 C-0.67 0.67 -0.34 0.34 0 0 Z " fill="#3D77B6" transform="translate(114,46)"/>
<path d="M0 0 C5.00082049 -0.35093477 5.00082049 -0.35093477 8 1 C10.98287185 4.80804013 15 9.99313736 15 15 C12.83203125 15.43359375 12.83203125 15.43359375 10 15 C7.85949305 12.94464885 6.30990124 10.53576055 4.6875 8.0625 C4.23310547 7.40314453 3.77871094 6.74378906 3.31054688 6.06445312 C0 1.2106438 0 1.2106438 0 0 Z " fill="#FDB742" transform="translate(52,0)"/>
<path d="M0 0 C1.2375 0.1546875 1.2375 0.1546875 2.5 0.3125 C4.81282587 3.78173881 4.92478586 5.23455575 4.5 9.3125 C3 11.1875 3 11.1875 1.5 12.3125 C-0.48 11.6525 -2.46 10.9925 -4.5 10.3125 C-4.6953125 4.2578125 -4.6953125 4.2578125 -4.5 2.3125 C-2.5 0.3125 -2.5 0.3125 0 0 Z " fill="#F7FBFE" transform="translate(153.5,48.6875)"/>
<path d="M0 0 C2.25 0.875 2.25 0.875 4.25 2.875 C4.25 3.865 4.25 4.855 4.25 5.875 C3.26 5.545 2.27 5.215 1.25 4.875 C1.25 4.215 1.25 3.555 1.25 2.875 C-1.06 3.535 -3.37 4.195 -5.75 4.875 C-5.75 7.845 -5.75 10.815 -5.75 13.875 C-2.83365871 14.1252157 -2.83365871 14.1252157 0.25 13.875 C0.91 12.885 1.57 11.895 2.25 10.875 C2.91 10.875 3.57 10.875 4.25 10.875 C3.9375 12.75 3.9375 12.75 3.25 14.875 C-0.24565336 17.20543558 -1.6365729 17.46263244 -5.75 16.875 C-8.31974777 14.76648901 -9.58762536 13.26481682 -9.98046875 9.90234375 C-9.76934063 5.71887913 -9.14737643 4.24528258 -6 1.3125 C-2.75 -0.125 -2.75 -0.125 0 0 Z " fill="#346EAE" transform="translate(234.75,46.125)"/>
<path d="M0 0 C2 2 2 2 2.1953125 5.0390625 C2.17210937 6.22242188 2.14890625 7.40578125 2.125 8.625 C2.10695312 9.81351563 2.08890625 11.00203125 2.0703125 12.2265625 C2.04710937 13.14179687 2.02390625 14.05703125 2 15 C1.34 15 0.68 15 0 15 C-0.33 10.71 -0.66 6.42 -1 2 C-3.31 2.66 -5.62 3.32 -8 4 C-8.33 7.63 -8.66 11.26 -9 15 C-9.66 15 -10.32 15 -11 15 C-11 10.05 -11 5.1 -11 0 C-2.85576923 -1.16346154 -2.85576923 -1.16346154 0 0 Z " fill="#2967AB" transform="translate(220,47)"/>
<path d="M0 0 C0.87914062 0.40992187 1.75828125 0.81984375 2.6640625 1.2421875 C1.70676334 2.36806764 0.74818355 3.492859 -0.2109375 4.6171875 C-0.74460937 5.24367188 -1.27828125 5.87015625 -1.828125 6.515625 C-2.95025757 7.80055401 -4.12965725 9.03590725 -5.3359375 10.2421875 C-10.79048295 9.78764205 -10.79048295 9.78764205 -13.3359375 7.2421875 C-11.81639967 5.84277123 -10.26927588 4.47326367 -8.7109375 3.1171875 C-7.85242187 2.35148437 -6.99390625 1.58578125 -6.109375 0.796875 C-3.3359375 -0.7578125 -3.3359375 -0.7578125 0 0 Z " fill="#F7674D" transform="translate(50.3359375,70.7578125)"/>
<path d="M0 0 C0.8723412 2.99480917 1.10829766 5.63575911 1.0625 8.75 C1.05347656 9.54921875 1.04445313 10.3484375 1.03515625 11.171875 C1.02355469 11.77515625 1.01195312 12.3784375 1 13 C-1.64 13 -4.28 13 -7 13 C-7.3125 9.8125 -7.3125 9.8125 -7 6 C-4.8272578 3.36983839 -3.05326212 1.52663106 0 0 Z " fill="#319AD6" transform="translate(51,21)"/>
<path d="M0 0 C2.01953125 1.77734375 2.01953125 1.77734375 3.8125 3.9375 C4.41707031 4.64777344 5.02164063 5.35804687 5.64453125 6.08984375 C7 8 7 8 7 10 C3.3783214 10.32542619 1.53078126 10.34898462 -1.5546875 8.3203125 C-2.32039063 7.59585937 -3.08609375 6.87140625 -3.875 6.125 C-4.65617187 5.40570312 -5.43734375 4.68640625 -6.2421875 3.9453125 C-8 2 -8 2 -8 0 C-4.62298083 -1.12567306 -3.34685035 -1.06094644 0 0 Z " fill="#F36642" transform="translate(53,5)"/>
<path d="M0 0 C3.63 0 7.26 0 11 0 C11 1.98 11 3.96 11 6 C7.50615721 7.16461426 4.66344611 7.13568319 1 7 C0 6 0 6 -0.0625 2.9375 C-0.041875 1.968125 -0.02125 0.99875 0 0 Z " fill="#F35D46" transform="translate(22,45)"/>
<path d="M0 0 C0.99 0 1.98 0 3 0 C3 7.26 3 14.52 3 22 C2.01 22 1.02 22 0 22 C0 14.74 0 7.48 0 0 Z " fill="#346FB0" transform="translate(201,41)"/>
<path d="M0 0 C3.63 0 7.26 0 11 0 C11 1.98 11 3.96 11 6 C7.37 6 3.74 6 0 6 C0 4.02 0 2.04 0 0 Z " fill="#F56148" transform="translate(22,37)"/>
<path d="M0 0 C2.64074709 1.51842958 4.46885271 3.18066968 6.5 5.4375 C4.5 7.4375 4.5 7.4375 1.6875 7.75 C-1.84946692 7.40323854 -3.69390601 6.58333658 -6.5 4.4375 C-6.5 2.4375 -6.5 2.4375 -4.8125 0.6875 C-2.5 -0.5625 -2.5 -0.5625 0 0 Z " fill="#F6664D" transform="translate(39.5,14.5625)"/>
<path d="M0 0 C0.66 0 1.32 0 2 0 C2 1.65 2 3.3 2 5 C2.99 5 3.98 5 5 5 C5 5.66 5 6.32 5 7 C4.01 7 3.02 7 2 7 C2 10.63 2 14.26 2 18 C2.99 18 3.98 18 5 18 C5 18.99 5 19.98 5 21 C3.35 20.67 1.7 20.34 0 20 C0 15.71 0 11.42 0 7 C-0.99 7 -1.98 7 -3 7 C-3 6.34 -3 5.68 -3 5 C-2.01 5 -1.02 5 0 5 C0 3.35 0 1.7 0 0 Z " fill="#205D9F" transform="translate(183,42)"/>
<path d="M0 0 C2.64 0 5.28 0 8 0 C8 2.31 8 4.62 8 7 C5.36 7 2.72 7 0 7 C0 4.69 0 2.38 0 0 Z " fill="#1A89C8" transform="translate(44,54)"/>
<path d="M0 0 C2.64 0 5.28 0 8 0 C8 2.31 8 4.62 8 7 C5.36 7 2.72 7 0 7 C0 4.69 0 2.38 0 0 Z " fill="#1988C8" transform="translate(44,36)"/>
<path d="M0 0 C2.64 0 5.28 0 8 0 C8 2.31 8 4.62 8 7 C5.36 7 2.72 7 0 7 C0 4.69 0 2.38 0 0 Z " fill="#1B8ACA" transform="translate(53,27)"/>
<path d="M0 0 C2.3125 0.1875 2.3125 0.1875 5 1 C7.86488143 4.60762847 8.87369779 8.58142979 10 13 C6.79932974 12.05862639 5.31240759 11.46359743 3.41796875 8.65234375 C3.01191406 7.75644531 2.60585937 6.86054688 2.1875 5.9375 C1.76855469 5.03902344 1.34960938 4.14054688 0.91796875 3.21484375 C0 1 0 1 0 0 Z " fill="#F96C52" transform="translate(65,6)"/>
<path d="M0 0 C1.29207 0.53464966 2.56180575 1.12465287 3.8125 1.75 C3.8125 2.41 3.8125 3.07 3.8125 3.75 C1.50973426 5.96747812 0.28769908 6.71760006 -2.9375 6.9375 C-4.05125 6.8446875 -4.05125 6.8446875 -5.1875 6.75 C-5.8475 5.43 -6.5075 4.11 -7.1875 2.75 C-2.77140579 -0.31673209 -2.77140579 -0.31673209 0 0 Z " fill="#F6644B" transform="translate(42.1875,66.25)"/>
<path d="M0 0 C2.31 0 4.62 0 7 0 C7 2.31 7 4.62 7 7 C4.69 7 2.38 7 0 7 C0 4.69 0 2.38 0 0 Z " fill="#1182C3" transform="translate(71,27)"/>
<path d="M0 0 C2.31 0 4.62 0 7 0 C7 2.31 7 4.62 7 7 C4.69 7 2.38 7 0 7 C0 4.69 0 2.38 0 0 Z " fill="#1182C3" transform="translate(62,27)"/>
<path d="M0 0 C0.66 0 1.32 0 2 0 C2 5.28 2 10.56 2 16 C1.01 16 0.02 16 -1 16 C-1.02685095 13.52076199 -1.04676547 11.0418116 -1.0625 8.5625 C-1.07506836 7.50192383 -1.07506836 7.50192383 -1.08789062 6.41992188 C-1.09653588 4.61306441 -1.05220011 2.80612397 -1 1 C-0.67 0.67 -0.34 0.34 0 0 Z " fill="#3A73B4" transform="translate(101,47)"/>
<path d="M0 0 C1.98 0 3.96 0 6 0 C6 2.64 6 5.28 6 8 C3.36 7.67 0.72 7.34 -2 7 C-1.34 4.69 -0.68 2.38 0 0 Z " fill="#FDB346" transform="translate(19,27)"/>
<path d="M0 0 C1.98 0 3.96 0 6 0 C6.66 1.98 7.32 3.96 8 6 C6.35 6.66 4.7 7.32 3 8 C0 2.25 0 2.25 0 0 Z " fill="#FDB644" transform="translate(18,55)"/>
<path d="M0 0 C2.31 0.66 4.62 1.32 7 2 C4.00518135 6.31606218 4.00518135 6.31606218 2 8 C-1.3125 7.875 -1.3125 7.875 -4 7 C-2.79618552 4.50638429 -1.54571278 2.31856917 0 0 Z " fill="#FDB649" transform="translate(25,18)"/>
<path d="M0 0 C2.46800047 1.15173355 4.04783565 2.04783565 6 4 C6.4140625 6.1640625 6.4140625 6.1640625 6.625 8.625 C6.69976562 9.44226562 6.77453125 10.25953125 6.8515625 11.1015625 C6.92503906 12.04128906 6.92503906 12.04128906 7 13 C2.18602057 8.94612259 1.11458074 5.9782058 0 0 Z " fill="#FEBD56" transform="translate(74,10)"/>
<path d="M0 0 C0 1.98 0 3.96 0 6 C-2.64 6 -5.28 6 -8 6 C-7.67 4.35 -7.34 2.7 -7 1 C-4 0 -4 0 0 0 Z " fill="#1B8ACA" transform="translate(61,19)"/>
<path d="M0 0 C2.25133315 1.52509665 2.93983891 2.81834728 3.9375 5.3125 C2.2875 5.9725 0.6375 6.6325 -1.0625 7.3125 C-5.0625 2.5625 -5.0625 2.5625 -5.0625 0.3125 C-2.0625 -0.6875 -2.0625 -0.6875 0 0 Z " fill="#FDB443" transform="translate(28.0625,63.6875)"/>
<path d="M0 0 C1.98 0 3.96 0 6 0 C6 2.31 6 4.62 6 7 C4.02 7 2.04 7 0 7 C0 4.69 0 2.38 0 0 Z " fill="#1787C7" transform="translate(37,45)"/>
<path d="M0 0 C0.33 0 0.66 0 1 0 C1 2.31 1 4.62 1 7 C3.64 7 6.28 7 9 7 C9 7.66 9 8.32 9 9 C4.05 9 -0.9 9 -6 9 C-6.33 9.66 -6.66 10.32 -7 11 C-7 9.35 -7 7.7 -7 6 C-4.69 6.33 -2.38 6.66 0 7 C0 4.69 0 2.38 0 0 Z " fill="#BAF0FD" transform="translate(43,36)"/>
<path d="M0 0 C1.99954746 -0.04254356 4.00041636 -0.04080783 6 0 C7 1 7 1 7.0625 3.5625 C7.041875 4.366875 7.02125 5.17125 7 6 C4.69 6 2.38 6 0 6 C0 4.02 0 2.04 0 0 Z " fill="#1687C7" transform="translate(62,19)"/>
<path d="M0 0 C1.2065625 0.0309375 1.2065625 0.0309375 2.4375 0.0625 C2.4375 2.3725 2.4375 4.6825 2.4375 7.0625 C0.77138095 7.105221 -0.89632885 7.10313832 -2.5625 7.0625 C-3.5625 6.0625 -3.5625 6.0625 -3.6875 3.5625 C-3.51717518 0.15600356 -3.41884482 0.08338646 0 0 Z " fill="#CBFDFE" transform="translate(138.5625,74.9375)"/>
<path d="M0 0 C2.475 0.99 2.475 0.99 5 2 C5 6.62 5 11.24 5 16 C4.34 16 3.68 16 3 16 C2.67 12.04 2.34 8.08 2 4 C-0.475 3.01 -0.475 3.01 -3 2 C-2.01 1.34 -1.02 0.68 0 0 Z " fill="#1E5CA0" transform="translate(172,46)"/>
<path d="M0 0 C1.65 0 3.3 0 5 0 C5 2.31 5 4.62 5 7 C3.02 7 1.04 7 -1 7 C-0.67 4.69 -0.34 2.38 0 0 Z " fill="#1484C4" transform="translate(38,36)"/>
<path d="M0 0 C2.8125 -0.3125 2.8125 -0.3125 6 0 C7.88599343 2.38892501 9 3.91851558 9 7 C6.75 7.3125 6.75 7.3125 4 7 C0 2.89189189 0 2.89189189 0 0 Z " fill="#F76D4D" transform="translate(58,8)"/>
<path d="M0 0 C1.65 1.32 3.3 2.64 5 4 C4.38125 4.28875 3.7625 4.5775 3.125 4.875 C0.86674235 5.93720042 0.86674235 5.93720042 -1 8 C-3.5 6.625 -3.5 6.625 -6 5 C-6 4.34 -6 3.68 -6 3 C-4.02 2.01 -2.04 1.02 0 0 Z " fill="#FDB546" transform="translate(41,6)"/>
<path d="M0 0 C1.98 0 3.96 0 6 0 C6 1.98 6 3.96 6 6 C4.02 6 2.04 6 0 6 C0 4.02 0 2.04 0 0 Z " fill="#097CBE" transform="translate(45,46)"/>
<path d="M0 0 C2.475 0.495 2.475 0.495 5 1 C4.01 2.485 4.01 2.485 3 4 C2.54227937 6.73872955 2.54227937 6.73872955 2.375 9.6875 C2.30023438 10.68136719 2.22546875 11.67523438 2.1484375 12.69921875 C2.09945312 13.45847656 2.05046875 14.21773437 2 15 C1.34 15 0.68 15 0 15 C0 10.05 0 5.1 0 0 Z " fill="#135296" transform="translate(209,47)"/>
<path d="M0 0 C2.1640625 0.0234375 2.1640625 0.0234375 4.625 0.375 C5.85089844 0.54128906 5.85089844 0.54128906 7.1015625 0.7109375 C7.72804688 0.80632812 8.35453125 0.90171875 9 1 C8.01 2.32 7.02 3.64 6 5 C0.25 4.25 0.25 4.25 -2 2 C-1.34 1.34 -0.68 0.68 0 0 Z " fill="#FDB848" transform="translate(39,76)"/>
<path d="M0 0 C2 2 2 2 2 5 C1.01 4.67 0.02 4.34 -1 4 C-1 3.34 -1 2.68 -1 2 C-4.3 2.66 -7.6 3.32 -11 4 C-7.07674629 -0.05402883 -5.62646495 -1.54727786 0 0 Z " fill="#3771B0" transform="translate(237,47)"/>
<path d="M0 0 C0.66 0.99 1.32 1.98 2 3 C0.02 3 -1.96 3 -4 3 C-4.33 3.66 -4.66 4.32 -5 5 C-6.5 3.625 -6.5 3.625 -8 2 C-8 1.34 -8 0.68 -8 0 C-4.67212881 -1.1092904 -3.3006216 -1.01557588 0 0 Z " fill="#FDBA49" transform="translate(53,5)"/>
<path d="M0 0 C-0.33 0.66 -0.66 1.32 -1 2 C-2.85546875 2.5625 -2.85546875 2.5625 -5.1875 3 C-8.90716396 3.74868636 -12.42200638 4.71559203 -16 6 C-16.33 5.34 -16.66 4.68 -17 4 C-14.92227529 3.13227971 -12.83756823 2.28126381 -10.75 1.4375 C-9.58984375 0.96183594 -8.4296875 0.48617187 -7.234375 -0.00390625 C-4.13733356 -0.95770524 -2.92678299 -1.20983356 0 0 Z " fill="#FEE8CB" transform="translate(38,59)"/>
<path d="M0 0 C2 1.5 2 1.5 4 4 C4.35800135 6.75871627 4.18660165 9.20097524 4 12 C1 10 1 10 0 7 C-0.03954234 4.66700175 -0.04401732 2.33291811 0 0 Z " fill="#FB9854" transform="translate(82,16)"/>
<path d="M0 0 C1.3125 2.0625 1.3125 2.0625 2 4 C1.01 4 0.02 4 -1 4 C-1 3.34 -1 2.68 -1 2 C-3.97 2.66 -6.94 3.32 -10 4 C-7.41564556 -1.16870887 -5.33542889 -1.7784763 0 0 Z " fill="#3770AF" transform="translate(134,47)"/>
<path d="M0 0 C0.33 0 0.66 0 1 0 C1.84888195 5.37625234 2.0024305 9.65370398 1 15 C0.67 15 0.34 15 0 15 C0 12.69 0 10.38 0 8 C-2.31 8 -4.62 8 -7 8 C-7 7.34 -7 6.68 -7 6 C-4.69 6 -2.38 6 0 6 C0 4.02 0 2.04 0 0 Z " fill="#BDF4FF" transform="translate(61,19)"/>
<path d="M0 0 C0.99 0 1.98 0 3 0 C3 4.62 3 9.24 3 14 C2.34 14 1.68 14 1 14 C0.67 9.38 0.34 4.76 0 0 Z " fill="#155499" transform="translate(117,48)"/>
<path d="M0 0 C1.65 0 3.3 0 5 0 C5.66 1.32 6.32 2.64 7 4 C6 5 6 5 2.9375 5.0625 C1.4834375 5.0315625 1.4834375 5.0315625 0 5 C0 3.35 0 1.7 0 0 Z " fill="#E6F2FC" transform="translate(65,46)"/>
<path d="M0 0 C3.63 0 7.26 0 11 0 C11 1.32 11 2.64 11 4 C10.34 4 9.68 4 9 4 C9 3.34 9 2.68 9 2 C6.36 2 3.72 2 1 2 C0.67 3.32 0.34 4.64 0 6 C0 4.02 0 2.04 0 0 Z " fill="#FC7B5F" transform="translate(22,45)"/>
<path d="M0 0 C2.35694954 0.09031574 4.71153582 0.24688128 7.0625 0.4375 C8.35285156 0.53933594 9.64320312 0.64117187 10.97265625 0.74609375 C12.47119141 0.87177734 12.47119141 0.87177734 14 1 C10.877998 3.08133467 10.06733011 3.2737822 6.5 3.25 C5.33984375 3.25773437 5.33984375 3.25773437 4.15625 3.265625 C2 3 2 3 -1 1 C-0.67 0.67 -0.34 0.34 0 0 Z " fill="#FEE5BE" transform="translate(17,34)"/>
<path d="M0 0 C1.65 0 3.3 0 5 0 C5 1.98 5 3.96 5 6 C3.35 6 1.7 6 0 6 C0 4.02 0 2.04 0 0 Z " fill="#097BBD" transform="translate(46,28)"/>
<path d="M0 0 C6.30214697 0.33169195 10.85216936 3.67323988 16 7 C15.01 7.66 14.02 8.32 13 9 C11.58235006 8.06398754 10.16592432 7.1261208 8.75 6.1875 C7.56664062 5.40439453 7.56664062 5.40439453 6.359375 4.60546875 C4.18907519 3.12865878 2.08586232 1.59310127 0 0 Z " fill="#FEEED6" transform="translate(33,11)"/>
<path d="M0 0 C0.66 0 1.32 0 2 0 C2.66 0.66 3.32 1.32 4 2 C4.66 1.67 5.32 1.34 6 1 C6 2.98 6 4.96 6 7 C3.525 6.01 3.525 6.01 1 5 C0.67 5.66 0.34 6.32 0 7 C0 4.69 0 2.38 0 0 Z " fill="#B2FAFE" transform="translate(215,75)"/>
<path d="M0 0 C3.25524265 3.02272532 5.61820737 6.25718301 8 10 C7.67 10.66 7.34 11.32 7 12 C5.02 12 3.04 12 1 12 C1 11.67 1 11.34 1 11 C2.65 11 4.3 11 6 11 C3.69 8.03 1.38 5.06 -1 2 C-0.67 1.34 -0.34 0.68 0 0 Z " fill="#FEE3CD" transform="translate(54,4)"/>
<path d="M0 0 C-1.22053859 3.66161578 -2.36782304 4.16270474 -5.5625 6.1875 C-6.38878906 6.71730469 -7.21507812 7.24710937 -8.06640625 7.79296875 C-8.70449219 8.19128906 -9.34257813 8.58960937 -10 9 C-10.66 8.34 -11.32 7.68 -12 7 C-10.3790787 5.82767315 -8.75313167 4.6622923 -7.125 3.5 C-6.22007813 2.8503125 -5.31515625 2.200625 -4.3828125 1.53125 C-2 0 -2 0 0 0 Z " fill="#FEF2DC" transform="translate(46,70)"/>
<path d="M0 0 C1.125 3.75 1.125 3.75 0 6 C-1.98 6 -3.96 6 -6 6 C-4.75453595 2.26360784 -3.36595047 1.81243487 0 0 Z " fill="#5DB9E6" transform="translate(51,21)"/>
<path d="M0 0 C0.33 0 0.66 0 1 0 C1 3.63 1 7.26 1 11 C2.32 11 3.64 11 5 11 C5 11.99 5 12.98 5 14 C3.35 13.67 1.7 13.34 0 13 C0 8.71 0 4.42 0 0 Z " fill="#2A67AB" transform="translate(183,49)"/>
<path d="M0 0 C2.625 0.375 2.625 0.375 5 1 C4.38125 1.185625 3.7625 1.37125 3.125 1.5625 C-0.05602866 3.71437233 -0.19451947 6.37533763 -1 10 C-1.99 9.01 -2.98 8.02 -4 7 C-2.92598892 4.08482708 -2.22189824 2.22189824 0 0 Z " fill="#5689C2" transform="translate(150,47)"/>
<path d="M0 0 C0.33 0.99 0.66 1.98 1 3 C0.34 3.66 -0.32 4.32 -1 5 C-1 4.01 -1 3.02 -1 2 C-3.64 2 -6.28 2 -9 2 C-9 1.34 -9 0.68 -9 0 C-5.69903842 -0.8252404 -3.1967 -1.37001429 0 0 Z " fill="#457DBA" transform="translate(220,47)"/>
<path d="M0 0 C4.75 0.75 4.75 0.75 7 3 C6.67 3.99 6.34 4.98 6 6 C4.68 6 3.36 6 2 6 C1.34 4.02 0.68 2.04 0 0 Z " fill="#FEB348" transform="translate(65,6)"/>
<path d="M0 0 C0.66 0 1.32 0 2 0 C2 2.97 2 5.94 2 9 C1.01 8.34 0.02 7.68 -1 7 C-0.67 4.69 -0.34 2.38 0 0 Z " fill="#2864A6" transform="translate(226,51)"/>
<path d="M0 0 C1.7074998 1.28062485 3.37373596 2.61767557 5 4 C5 4.66 5 5.32 5 6 C2.1875 6.25 2.1875 6.25 -1 6 C-2.875 4 -2.875 4 -4 2 C-2 3 0 4 2 5 C1.34 3.35 0.68 1.7 0 0 Z " fill="#F8664F" transform="translate(55,9)"/>
<path d="M0 0 C3 1 3 1 4.75 4.4375 C5.36875 6.2009375 5.36875 6.2009375 6 8 C5.67 8.66 5.34 9.32 5 10 C3.35 10 1.7 10 0 10 C1.32 9.67 2.64 9.34 4 9 C3.34 7.88625 2.68 6.7725 2 5.625 C0 2.25 0 2.25 0 0 Z " fill="#FEE5CC" transform="translate(63,6)"/>
<path d="M0 0 C2.5 1.1875 2.5 1.1875 5 3 C5.3125 5.6875 5.3125 5.6875 5 8 C2.5 5.6875 2.5 5.6875 0 3 C0 2.01 0 1.02 0 0 Z " fill="#F97157" transform="translate(76,15)"/>
<path d="M0 0 C1.32 0.99 2.64 1.98 4 3 C4 2.01 4 1.02 4 0 C4.66 0.33 5.32 0.66 6 1 C5.01 2.98 4.02 4.96 3 7 C1.5 5.75 1.5 5.75 0 4 C0 2.68 0 1.36 0 0 Z " fill="#B4FCFE" transform="translate(91,75)"/>
<path d="M0 0 C1.17539996 0.92652701 2.34010577 1.86663387 3.5 2.8125 C4.1496875 3.33457031 4.799375 3.85664063 5.46875 4.39453125 C7 6 7 6 7 9 C4.36 7.02 1.72 5.04 -1 3 C-0.67 2.01 -0.34 1.02 0 0 Z " fill="#FEE8CC" transform="translate(44,5)"/>
<path d="M0 0 C1.65 0 3.3 0 5 0 C5 2.31 5 4.62 5 7 C3.29115995 5.37660195 1.62553283 3.70680947 0 2 C0 1.34 0 0.68 0 0 Z " fill="#A9F9FE" transform="translate(160,75)"/>
<path d="M0 0 C1.32 0 2.64 0 4 0 C4 1.98 4 3.96 4 6 C3.34 6 2.68 6 2 6 C1.34 4.02 0.68 2.04 0 0 Z " fill="#2794D2" transform="translate(39,54)"/>
<path d="M0 0 C1.98 0 3.96 0 6 0 C6 1.32 6 2.64 6 4 C1.125 2.25 1.125 2.25 0 0 Z " fill="#2491D0" transform="translate(46,63)"/>
<path d="M0 0 C1.37562854 1.28965176 2.70766393 2.62689293 4 4 C4 4.66 4 5.32 4 6 C2.68 6 1.36 6 0 6 C0 4.02 0 2.04 0 0 Z " fill="#1B8ACA" transform="translate(80,28)"/>
<path d="M0 0 C1.9078584 3.1749094 2.1609041 5.10585211 1.625 8.75 C1.51414063 9.54921875 1.40328125 10.3484375 1.2890625 11.171875 C1.19367187 11.77515625 1.09828125 12.3784375 1 13 C0.67 13 0.34 13 0 13 C-0.19658808 11.58456585 -0.38187546 10.16755969 -0.5625 8.75 C-0.66691406 7.96109375 -0.77132812 7.1721875 -0.87890625 6.359375 C-1.00027349 3.99467126 -0.69633257 2.2488963 0 0 Z " fill="#DCFEFF" transform="translate(52,21)"/>
</svg>
