<?xml version="1.0" encoding="UTF-8"?>
<svg version="1.1" xmlns="http://www.w3.org/2000/svg" width="403" height="180">
<path d="M0 0 C132.99 0 265.98 0 403 0 C403 59.4 403 118.8 403 180 C270.01 180 137.02 180 0 180 C0 120.6 0 61.2 0 0 Z " fill="#FDFDFE" transform="translate(0,0)"/>
<path d="M0 0 C3.691875 -0.103125 7.38375 -0.20625 11.1875 -0.3125 C12.92036255 -0.38078003 12.92036255 -0.38078003 14.68823242 -0.45043945 C22.26638696 -0.55314243 22.26638696 -0.55314243 26.17578125 2.39453125 C29.07740395 6.53881891 29.34581506 8.89922788 29 14 C27.31733135 17.70187104 25.4753966 19.91119143 22 22 C18.984375 22.29296875 18.984375 22.29296875 15.75 22.1875 C14.67234375 22.16042969 13.5946875 22.13335937 12.484375 22.10546875 C11.66453125 22.07066406 10.8446875 22.03585938 10 22 C10 25.3 10 28.6 10 32 C6.7 32 3.4 32 0 32 C0 21.44 0 10.88 0 0 Z " fill="#125092" transform="translate(106,80)"/>
<path d="M0 0 C16.38773014 0.51420684 32.67323914 1.4971793 49 3 C48.67 6.3 48.34 9.6 48 13 C32.16 13.66 16.32 14.32 0 15 C-1 4 -1 4 0 0 Z " fill="#FCB03E" transform="translate(19,71)"/>
<path d="M0 0 C3.3 0 6.6 0 10 0 C10.67321284 2.24805002 11.33834123 4.49852224 12 6.75 C12.556875 8.62945312 12.556875 8.62945312 13.125 10.546875 C14 14 14 14 14 18 C14.99 18 15.98 18 17 18 C17.03738281 17.3709375 17.07476562 16.741875 17.11328125 16.09375 C17.56677121 10.18948851 18.67976914 5.44749854 21 0 C23.97 0 26.94 0 30 0 C28.58107642 7.22361097 26.45783079 14.13191299 24.21875 21.1328125 C23.06945566 24.73526832 22.0212913 28.35928565 21 32 C17.04 32 13.08 32 9 32 C7.87689809 28.24694647 6.75519288 24.49351772 5.63696289 20.73901367 C5.07007821 18.83791421 4.50087498 16.93750661 3.93164062 15.03710938 C3.57392578 13.83505859 3.21621094 12.63300781 2.84765625 11.39453125 C2.51773682 10.28956299 2.18781738 9.18459473 1.84790039 8.04614258 C1.10369394 5.37252788 0.499503 2.72839637 0 0 Z " fill="#135092" transform="translate(136,80)"/>
<path d="M0 0 C1.17949219 0.10183594 2.35898437 0.20367187 3.57421875 0.30859375 C4.47785156 0.39238281 5.38148438 0.47617188 6.3125 0.5625 C6.42906783 4.77059884 6.49987611 8.97827996 6.5625 13.1875 C6.61277344 14.97220703 6.61277344 14.97220703 6.6640625 16.79296875 C6.78898241 27.97330041 6.78898241 27.97330041 2.3125 32.5625 C-1.73572767 33.91190922 -5.45992051 34.25845879 -9.6875 33.5625 C-12.75 31.0625 -12.75 31.0625 -14.6875 28.5625 C-12.9375 27.875 -12.9375 27.875 -10.6875 27.5625 C-10.089375 28.0575 -9.49125 28.5525 -8.875 29.0625 C-6.63115106 30.91184483 -6.63115106 30.91184483 -3.0625 30.5 C0.31809916 29.90730757 0.31809916 29.90730757 1.8125 27.75 C2.37341226 25.29600886 2.15177091 23.91245854 1.3125 21.5625 C0.796875 22.078125 0.28125 22.59375 -0.25 23.125 C-2.6875 24.5625 -2.6875 24.5625 -6.125 24.5625 C-10.48172549 23.33955951 -12.07104684 22.25631623 -14.6875 18.5625 C-16.03810778 14.03546283 -16.08157937 10.62651429 -14.4375 6.1875 C-10.33299396 0.03074094 -7.35528928 -0.65542182 0 0 Z " fill="#205A98" transform="translate(253.6875,88.4375)"/>
<path d="M0 0 C2.15808925 1.07155972 4.27792325 2.22163987 6.3671875 3.421875 C6.96500031 3.7637384 7.56281311 4.10560181 8.17874146 4.45782471 C9.43959587 5.18079706 10.69850749 5.907167 11.95556641 6.63671875 C13.85771438 7.73997426 15.76608592 8.83174698 17.67578125 9.921875 C23.65312694 13.35243336 29.49942364 16.82941374 35 21 C32.9375 23.5625 32.9375 23.5625 30 26 C22.93126331 25.95217364 16.61933839 22.52842438 10.25 19.75 C9.13367188 19.27175781 8.01734375 18.79351562 6.8671875 18.30078125 C-0.13030666 15.29136943 -7.07863026 12.18027709 -14 9 C-12.55498928 5.97364206 -11.20222558 3.93458295 -8.6875 1.6875 C-8.11386719 1.15511719 -7.54023437 0.62273438 -6.94921875 0.07421875 C-4.21032079 -1.43519395 -2.99210017 -0.84176664 0 0 Z " fill="#FBB140" transform="translate(53,26)"/>
<path d="M0 0 C0.495 4.455 0.495 4.455 1 9 C-6.57699278 10.91805383 -14.16146826 12.44585349 -21.875 13.6875 C-23.06863159 13.88436401 -23.06863159 13.88436401 -24.28637695 14.08520508 C-28.91889402 14.80868711 -33.31195585 15.13126524 -38 15 C-38.36098063 13.02206479 -38.71361348 11.04260427 -39.0625 9.0625 C-39.25972656 7.96035156 -39.45695312 6.85820313 -39.66015625 5.72265625 C-39.77230469 4.82417969 -39.88445313 3.92570312 -40 3 C-37.94345314 0.94345314 -33.71698152 1.60209342 -30.87890625 1.46484375 C-30.06381088 1.42186661 -29.24871552 1.37888947 -28.40892029 1.33460999 C-25.79365363 1.19783693 -23.17810286 1.06766885 -20.5625 0.9375 C-18.80141051 0.84612195 -17.04034242 0.75433044 -15.27929688 0.66210938 C-2.51765171 0 -2.51765171 0 0 0 Z " fill="#FBB03D" transform="translate(67,86)"/>
<path d="M0 0 C1.62580966 0.11398665 3.25067157 0.24155659 4.875 0.375 C5.77992187 0.44460937 6.68484375 0.51421875 7.6171875 0.5859375 C10 1 10 1 12 3 C12.721875 3.12375 13.44375 3.2475 14.1875 3.375 C17.98788984 4.21953108 20.67742689 5.98039674 24 8 C24 8.66 24 9.32 24 10 C22.02 10 20.04 10 18 10 C18 10.66 18 11.32 18 12 C19.98 11.67 21.96 11.34 24 11 C24 14.96 24 18.92 24 23 C20.7 23 17.4 23 14 23 C13.67 21.02 13.34 19.04 13 17 C12.690625 17.804375 12.38125 18.60875 12.0625 19.4375 C11 22 11 22 10 23 C6.66381769 23.14257189 3.34024394 23.04228157 0 23 C0 19.37 0 15.74 0 12 C2.64 11.67 5.28 11.34 8 11 C6.865625 10.855625 5.73125 10.71125 4.5625 10.5625 C1 10 1 10 0 9 C-0.07179964 7.48071962 -0.08392007 5.95832518 -0.0625 4.4375 C-0.05347656 3.61121094 -0.04445313 2.78492188 -0.03515625 1.93359375 C-0.02355469 1.29550781 -0.01195313 0.65742187 0 0 Z " fill="#DDEAF4" transform="translate(112,47)"/>
<path d="M0 0 C1.67669671 1.03916469 3.3247569 2.12430083 4.96606445 3.21850586 C3.42226243 7.84991192 -0.27216049 9.37273505 -4.23803711 12.00268555 C-6.35928726 13.43876844 -8.44069459 14.92621853 -10.52612305 16.41381836 C-12.13238378 17.53694407 -13.73915782 18.65933602 -15.34643555 19.78100586 C-16.12301514 20.34231201 -16.89959473 20.90361816 -17.69970703 21.48193359 C-23.31935698 25.3435079 -23.31935698 25.3435079 -26.86987305 24.72241211 C-29.7892282 22.69361836 -32.36708283 20.57525942 -35.03393555 18.21850586 C-32.69439001 15.62923087 -30.27235708 14.09440494 -27.2097168 12.44116211 C-26.26290039 11.9274707 -25.31608398 11.4137793 -24.34057617 10.88452148 C-23.35250977 10.35536133 -22.36444336 9.82620117 -21.34643555 9.28100586 C-20.37770508 8.75571289 -19.40897461 8.23041992 -18.41088867 7.68920898 C-16.50938564 6.66196022 -14.6033771 5.64300103 -12.69262695 4.63305664 C-11.01043267 3.73804896 -9.33903172 2.82218111 -7.68383789 1.87817383 C-2.52571444 -0.97044916 -2.52571444 -0.97044916 0 0 Z " fill="#FBB13F" transform="translate(82.033935546875,117.781494140625)"/>
<path d="M0 0 C5.36161431 0.69686764 10.60185739 1.6839971 15.875 2.875 C16.64585938 3.03613281 17.41671875 3.19726562 18.2109375 3.36328125 C20.16646713 3.80740682 22.08857673 4.39353091 24 5 C25 8 25 8 23.5625 11.1875 C22.7890625 12.5796875 22.7890625 12.5796875 22 14 C19.33311371 13.85756403 16.66654233 13.71113422 14 13.5625 C13.25621094 13.52318359 12.51242188 13.48386719 11.74609375 13.44335938 C6.79266082 13.16338273 1.91686531 12.66489429 -3 12 C-2.49202991 7.6822542 -1.80317221 3.96697886 0 0 Z " fill="#F15E48" transform="translate(47,58)"/>
<path d="M0 0 C7.91909556 2.45765035 15.41985296 5.66818573 23 9 C21.68 11.31 20.36 13.62 19 16 C12.95949073 16.32784311 7.85891514 15.13093049 2.0625 13.5 C1.18787109 13.26152344 0.31324219 13.02304687 -0.58789062 12.77734375 C-2.72755439 12.19273616 -4.86465572 11.60015656 -7 11 C-5.32603695 6.408335 -3.20616974 3.62803418 0 0 Z " fill="#F1604A" transform="translate(56,45)"/>
<path d="M0 0 C3 5.75 3 5.75 3 8 C-0.2681432 9.17430074 -3.53992515 10.33811256 -6.8125 11.5 C-7.74126953 11.83386719 -8.67003906 12.16773437 -9.62695312 12.51171875 C-10.9659668 12.98544922 -10.9659668 12.98544922 -12.33203125 13.46875 C-13.15421143 13.76201172 -13.9763916 14.05527344 -14.82348633 14.35742188 C-17 15 -17 15 -20 15 C-20.67408308 13.73308493 -21.33900497 12.46129251 -22 11.1875 C-22.37125 10.47980469 -22.7425 9.77210937 -23.125 9.04296875 C-24 7 -24 7 -24 4 C-20.93929066 3.32492934 -17.8761791 2.66145078 -14.8125 2 C-13.51602539 1.71382813 -13.51602539 1.71382813 -12.19335938 1.421875 C-11.35224609 1.24140625 -10.51113281 1.0609375 -9.64453125 0.875 C-8.48981323 0.62363281 -8.48981323 0.62363281 -7.31176758 0.3671875 C-4.83939753 -0.02550915 -2.49924191 -0.06185285 0 0 Z " fill="#F15E48" transform="translate(69,98)"/>
<path d="M0 0 C1.88964844 1.39599609 1.88964844 1.39599609 4.88964844 6.39599609 C-4.51535156 11.34599609 -4.51535156 11.34599609 -14.11035156 16.39599609 C-21.11035156 10.39599609 -21.11035156 10.39599609 -22.11035156 6.39599609 C-18.8691998 5.16292982 -15.61644105 3.96399858 -12.36035156 2.77099609 C-11.43996094 2.42037109 -10.51957031 2.06974609 -9.57128906 1.70849609 C-8.68183594 1.38623047 -7.79238281 1.06396484 -6.87597656 0.73193359 C-6.0590332 0.42819824 -5.24208984 0.12446289 -4.40039062 -0.18847656 C-2.11035156 -0.60400391 -2.11035156 -0.60400391 0 0 Z " fill="#F1604A" transform="translate(74.1103515625,108.60400390625)"/>
<path d="M0 0 C3.72476048 0.69839259 4.84743874 1.45324484 7 4.5625 C8.27921611 9.49661927 8.15559346 12.92797406 6 17.5625 C3 19.5625 3 19.5625 -0.5 19.4375 C-4 18.5625 -4 18.5625 -5.9375 17.0625 C-7.57176404 13.21717284 -7.6505913 9.67072824 -7 5.5625 C-5.03961935 1.86793646 -4.12880983 0.77415184 0 0 Z " fill="#F3F6F9" transform="translate(249,90.4375)"/>
<path d="M0 0 C2.1807432 1.73893029 4.13720159 3.44172973 6.125 5.375 C6.64964844 5.87 7.17429687 6.365 7.71484375 6.875 C10.18231045 9.21128493 12.60182671 11.59301314 15 14 C12.03922321 15.59509983 9.35396957 16.61519873 6 17 C2.06819749 15.68206508 -1.14848824 13.50942876 -4.5625 11.1875 C-5.47580078 10.60162109 -6.38910156 10.01574219 -7.33007812 9.41210938 C-9.57273719 7.96788391 -11.79301756 6.49794756 -14 5 C-9.64456018 0.47881405 -6.33114887 -2.04377116 0 0 Z " fill="#F15F49" transform="translate(84,29)"/>
<path d="M0 0 C1.9375 1.375 1.9375 1.375 3 3 C3 3.99 3 4.98 3 6 C0.03824877 5.38722388 -1.38058783 4.74627478 -4 3 C-7.12521833 2.83300768 -7.12521833 2.83300768 -10 3 C-9.67 4.65 -9.34 6.3 -9 8 C-7.84371094 8.29003906 -7.84371094 8.29003906 -6.6640625 8.5859375 C-5.66117188 8.84632812 -4.65828125 9.10671875 -3.625 9.375 C-2.62726563 9.63023438 -1.62953125 9.88546875 -0.6015625 10.1484375 C2 11 2 11 4 13 C4.56321839 19.1954023 4.56321839 19.1954023 2.6875 21.875 C-1.17176742 24.44784495 -5.51664531 24.63674104 -10 24 C-13 22.25 -13 22.25 -15 20 C-15 18.68 -15 17.36 -15 16 C-14.01 16 -13.02 16 -12 16 C-11.1028125 16.99 -11.1028125 16.99 -10.1875 18 C-8.10523729 20.30404069 -8.10523729 20.30404069 -4.875 20.3125 C-2.06060827 20.17528074 -2.06060827 20.17528074 0 19 C-0.03687878 17.03574814 -0.03687878 17.03574814 -1 15 C-3.70729549 13.74009267 -3.70729549 13.74009267 -6.9375 12.9375 C-12.79229644 11.31155534 -12.79229644 11.31155534 -15 8 C-15.0625 5 -15.0625 5 -14 2 C-9.07999261 -1.05040458 -5.72067384 -1.54018142 0 0 Z " fill="#1F5897" transform="translate(220,89)"/>
<path d="M0 0 C1.74784467 -0.13560864 3.49873926 -0.23227209 5.25 -0.3125 C6.22453125 -0.37050781 7.1990625 -0.42851562 8.203125 -0.48828125 C11 0 11 0 13.0625 2.0078125 C15.43097063 5.66557158 17.63382012 9.37906553 19.75 13.1875 C20.16121094 13.91130859 20.57242188 14.63511719 20.99609375 15.38085938 C24 20.74497768 24 20.74497768 24 23 C17.17732782 23.09693414 17.17732782 23.09693414 14.16943359 20.29443359 C12.39000756 17.98822749 10.77208961 15.63159222 9.1875 13.1875 C8.62869141 12.36701172 8.06988281 11.54652344 7.49414062 10.70117188 C6.45363477 9.17203753 5.4233125 7.63588438 4.40698242 6.09057617 C3.00350438 4.00520702 1.52471627 1.99793322 0 0 Z " fill="#FBB040" transform="translate(96,19)"/>
<path d="M0 0 C0.99 0 1.98 0 3 0 C3 3.96 3 7.92 3 12 C3.845625 11.484375 4.69125 10.96875 5.5625 10.4375 C9.65526982 8.72597808 11.74888458 8.87706385 16 10 C18.1803272 11.63059601 18.91560307 12.46064612 19.34057617 15.17651367 C19.32486572 15.99869385 19.30915527 16.82087402 19.29296875 17.66796875 C19.28330078 18.56064453 19.27363281 19.45332031 19.26367188 20.37304688 C19.23853516 21.30181641 19.21339844 22.23058594 19.1875 23.1875 C19.16719727 24.59805664 19.16719727 24.59805664 19.14648438 26.03710938 C19.11113096 28.35865038 19.06178674 30.67903653 19 33 C18.01 33 17.02 33 16 33 C15.96261719 31.80761719 15.92523438 30.61523438 15.88671875 29.38671875 C15.82105968 27.820281 15.75461232 26.25387616 15.6875 24.6875 C15.66494141 23.90181641 15.64238281 23.11613281 15.61914062 22.30664062 C15.58369141 21.54931641 15.54824219 20.79199219 15.51171875 20.01171875 C15.48553467 19.31522217 15.45935059 18.61872559 15.43237305 17.90112305 C14.87646617 15.4568278 13.95933393 14.5258243 12 13 C8.87585686 12.68758569 7.00174224 12.99941925 4 14 C3.67 20.27 3.34 26.54 3 33 C2.01 33 1.02 33 0 33 C0 22.11 0 11.22 0 0 Z " fill="#1F5897" transform="translate(267,79)"/>
<path d="M0 0 C2.31640625 2.07421875 2.31640625 2.07421875 4.5625 4.6875 C5.3359375 5.58597656 6.109375 6.48445313 6.90625 7.41015625 C9.15151163 10.18741084 11.1524839 12.94758209 13 16 C8.12877924 16.83950826 4.4687546 17.00805172 0.28515625 14.13671875 C-2.22645516 11.82905774 -4.60685888 9.4293399 -7 7 C-7.92167969 6.28328125 -8.84335938 5.5665625 -9.79296875 4.828125 C-10.52128906 4.22484375 -11.24960938 3.6215625 -12 3 C-12 2.34 -12 1.68 -12 1 C-7.56553711 -0.4781543 -4.49005534 -1.50127617 0 0 Z " fill="#F15E48" transform="translate(97,25)"/>
<path d="M0 0 C1.16015625 0.10054688 1.16015625 0.10054688 2.34375 0.203125 C4.94780621 0.86357404 5.94099196 1.5713862 7.5 3.75 C7.5 5.07 7.5 6.39 7.5 7.75 C6.51 7.75 5.52 7.75 4.5 7.75 C3.9225 7.069375 3.345 6.38875 2.75 5.6875 C0.53691367 3.34717764 0.53691367 3.34717764 -3.125 3.8125 C-6.75516924 4.4250845 -6.75516924 4.4250845 -8.5 7.75 C-8.73658571 11.4762249 -8.77306158 14.56673316 -7.9375 18.1875 C-6.44265855 20.09778213 -6.44265855 20.09778213 -3.0625 20.625 C0.60622176 21.10062805 0.60622176 21.10062805 3.5 18.75 C3.83 17.76 4.16 16.77 4.5 15.75 C5.49 15.75 6.48 15.75 7.5 15.75 C7.22253508 19.07957907 6.68903896 20.53804723 4.4375 23.0625 C0.64961718 25.23851779 -2.22595424 25.61519145 -6.5 24.75 C-9.93952148 22.65637823 -12.28028175 20.63092169 -13.5 16.75 C-14.05941123 10.70835872 -12.8792084 6.62487682 -9 1.9375 C-6.08294635 -0.37183414 -3.52632576 -0.35263258 0 0 Z " fill="#265E9A" transform="translate(371.5,88.25)"/>
<path d="M0 0 C1.010625 0.433125 2.02125 0.86625 3.0625 1.3125 C3.0625 6.01378647 -0.30961526 8.4196323 -3.44946289 11.58837891 C-5.63039135 13.64311484 -7.37192832 15.16901064 -10.30859375 15.9140625 C-14.2755433 15.47912285 -16.90526356 13.72496064 -19.9375 11.3125 C-17.7604648 9.59950405 -15.577199 7.89663929 -13.37890625 6.2109375 C-11.90165141 5.06222413 -10.4440548 3.88666386 -9.02734375 2.6640625 C-5.61375704 -0.15078576 -4.46117285 -0.77893494 0 0 Z " fill="#F1614B" transform="translate(93.9375,124.6875)"/>
<path d="M0 0 C2 2 2 2 2.22705078 4.15478516 C2.21657715 5.02409668 2.20610352 5.8934082 2.1953125 6.7890625 C2.18886719 7.73007813 2.18242187 8.67109375 2.17578125 9.640625 C2.15902344 10.62546875 2.14226562 11.6103125 2.125 12.625 C2.11597656 13.61757812 2.10695312 14.61015625 2.09765625 15.6328125 C2.07404116 18.08878134 2.04110799 20.54427168 2 23 C1.01 23 0.02 23 -1 23 C-1.04898438 21.72382812 -1.09796875 20.44765625 -1.1484375 19.1328125 C-1.22346191 17.46351928 -1.29900988 15.79424954 -1.375 14.125 C-1.4059375 13.28324219 -1.436875 12.44148438 -1.46875 11.57421875 C-1.50742188 10.76855469 -1.54609375 9.96289062 -1.5859375 9.1328125 C-1.6173584 8.38918457 -1.6487793 7.64555664 -1.68115234 6.87939453 C-1.85419551 4.75989026 -1.85419551 4.75989026 -4 3 C-7.52894948 3.08743691 -7.52894948 3.08743691 -11 4 C-13.48044315 7.72066472 -13.44381173 10.86540474 -13.625 15.1875 C-13.66367188 15.93708984 -13.70234375 16.68667969 -13.7421875 17.45898438 C-13.83628216 19.30559199 -13.91922319 21.1527619 -14 23 C-14.99 23 -15.98 23 -17 23 C-17 15.41 -17 7.82 -17 0 C-16.01 0 -15.02 0 -14 0 C-14 0.66 -14 1.32 -14 2 C-12.4840625 1.2265625 -12.4840625 1.2265625 -10.9375 0.4375 C-7.01688116 -1.25187234 -4.16906391 -1.06270257 0 0 Z " fill="#255D9A" transform="translate(197,89)"/>
<path d="M0 0 C2.13604308 3.20406462 2.24208908 3.99600747 2.1953125 7.66796875 C2.18886719 8.56064453 2.18242187 9.45332031 2.17578125 10.37304688 C2.15902344 11.30181641 2.14226562 12.23058594 2.125 13.1875 C2.11597656 14.12787109 2.10695313 15.06824219 2.09765625 16.03710938 C2.07409056 18.35832968 2.04119116 20.67903644 2 23 C1.01 23 0.02 23 -1 23 C-1.04898437 21.80761719 -1.09796875 20.61523438 -1.1484375 19.38671875 C-1.22347604 17.82028932 -1.2990234 16.25388421 -1.375 14.6875 C-1.4059375 13.90181641 -1.436875 13.11613281 -1.46875 12.30664062 C-1.50742187 11.54931641 -1.54609375 10.79199219 -1.5859375 10.01171875 C-1.6173584 9.31522217 -1.6487793 8.61872559 -1.68115234 7.90112305 C-1.92118253 5.67467261 -1.92118253 5.67467261 -4 3 C-8.10647439 2.45860812 -8.10647439 2.45860812 -11.65942383 4.27270508 C-13.26101712 6.33631327 -13.41449001 7.42543434 -13.51171875 10.01171875 C-13.54716797 10.76904297 -13.58261719 11.52636719 -13.61914062 12.30664062 C-13.64169922 13.09232422 -13.66425781 13.87800781 -13.6875 14.6875 C-13.72166016 15.48478516 -13.75582031 16.28207031 -13.79101562 17.10351562 C-13.87338104 19.06851904 -13.93837067 21.03423696 -14 23 C-14.99 23 -15.98 23 -17 23 C-17 15.41 -17 7.82 -17 0 C-16.01 0 -15.02 0 -14 0 C-14 0.66 -14 1.32 -14 2 C-12.7625 1.2265625 -12.7625 1.2265625 -11.5 0.4375 C-6.93207929 -1.43861029 -4.77440486 -1.1140278 0 0 Z " fill="#175294" transform="translate(351,89)"/>
<path d="M0 0 C5.61 0.33 11.22 0.66 17 1 C16.67 4.3 16.34 7.6 16 11 C10.72 11 5.44 11 0 11 C0 7.37 0 3.74 0 0 Z " fill="#F1604A" transform="translate(51,73)"/>
<path d="M0 0 C1.65 0 3.3 0 5 0 C5 10.89 5 21.78 5 33 C3.35 33 1.7 33 0 33 C0 22.11 0 11.22 0 0 Z " fill="#3D70A6" transform="translate(322,80)"/>
<path d="M0 0 C0.33 2.97 0.66 5.94 1 9 C-4.57067277 10.59162079 -9.21101581 11.20674944 -15 11 C-15.33 7.7 -15.66 4.4 -16 1 C-13.70839646 0.83246763 -11.41671509 0.66599948 -9.125 0.5 C-7.84882812 0.4071875 -6.57265625 0.314375 -5.2578125 0.21875 C-3.50763316 0.10123196 -1.75412035 0 0 0 Z " fill="#F15C46" transform="translate(67,86)"/>
<path d="M0 0 C3.62276315 1.3255581 6.63505348 2.94346955 9.8125 5.125 C10.60269531 5.66382813 11.39289063 6.20265625 12.20703125 6.7578125 C12.79871094 7.16773438 13.39039062 7.57765625 14 8 C11.9375 10.5625 11.9375 10.5625 9 13 C3.13933375 13.11270512 -1.83092256 10.52007177 -7 8 C-5.31847927 4.25979502 -3.30960527 2.43865652 0 0 Z " fill="#F15F49" transform="translate(74,39)"/>
<path d="M0 0 C0.99 0 1.98 0 3 0 C3.33 1.98 3.66 3.96 4 6 C5.32 6.33 6.64 6.66 8 7 C8 7.99 8 8.98 8 10 C6.35 10 4.7 10 3 10 C3.05985162 12.62748631 3.14676224 15.24916995 3.25 17.875 C3.26417969 18.62136719 3.27835937 19.36773437 3.29296875 20.13671875 C3.35986341 22.57138381 3.35986341 22.57138381 4 26 C5.90628782 27.60337399 5.90628782 27.60337399 8 28 C8 28.66 8 29.32 8 30 C5.69 30 3.38 30 1 30 C-0.14982602 25.90996141 -0.11094256 21.96822949 -0.0625 17.75 C-0.05798828 17.00492188 -0.05347656 16.25984375 -0.04882812 15.4921875 C-0.03709246 13.6614236 -0.0191585 11.83070127 0 10 C-1.32 10 -2.64 10 -4 10 C-4 9.01 -4 8.02 -4 7 C-2.68 7 -1.36 7 0 7 C0 4.69 0 2.38 0 0 Z " fill="#1B5696" transform="translate(294,82)"/>
<path d="M0 0 C3.80531177 0.72411758 6.82406729 1.75017897 10 4 C12.58235376 8.81282634 15 14.46501467 15 20 C10.60302938 19.51144771 8.8804473 18.30697507 6 15 C4.296875 12.08984375 4.296875 12.08984375 2.75 8.9375 C1.96882813 7.37322266 1.96882813 7.37322266 1.171875 5.77734375 C0 3 0 3 0 0 Z " fill="#F1634E" transform="translate(116,26)"/>
<path d="M0 0 C2.57161458 0.03255208 5.14322917 0.06510417 7.71484375 0.09765625 C7.71484375 3.72765625 7.71484375 7.35765625 7.71484375 11.09765625 C4.08484375 11.09765625 0.45484375 11.09765625 -3.28515625 11.09765625 C-3.3828125 3.3828125 -3.3828125 3.3828125 -3.28515625 1.09765625 C-2.28515625 0.09765625 -2.28515625 0.09765625 0 0 Z " fill="#107EBD" transform="translate(88.28515625,98.90234375)"/>
<path d="M0 0 C3.63 0 7.26 0 11 0 C11.09765625 7.71484375 11.09765625 7.71484375 11 10 C10 11 10 11 7.71484375 11.09765625 C5.14322917 11.06510417 2.57161458 11.03255208 0 11 C0 7.37 0 3.74 0 0 Z " fill="#137FBD" transform="translate(112,59)"/>
<path d="M0 0 C1.658397 1.05534355 3.29802103 2.14008694 4.93359375 3.23046875 C3.85259899 6.47345304 3.27732759 7.04659401 0.62109375 8.98046875 C0.02683594 9.4290625 -0.56742188 9.87765625 -1.1796875 10.33984375 C-3.06640625 11.23046875 -3.06640625 11.23046875 -5.09375 11 C-8.04825868 9.84744909 -10.4847702 8.0493487 -13.06640625 6.23046875 C-10.94415342 3.93632005 -8.89207742 2.37645641 -6.12890625 0.91796875 C-5.12537109 0.36689453 -5.12537109 0.36689453 -4.1015625 -0.1953125 C-2.06640625 -0.76953125 -2.06640625 -0.76953125 0 0 Z " fill="#F15F48" transform="translate(82.06640625,117.76953125)"/>
<path d="M0 0 C0 3.63 0 7.26 0 11 C-3.63 11 -7.26 11 -11 11 C-11 7.7 -11 4.4 -11 1 C-7.57067929 -0.71466036 -3.78283935 -0.05404056 0 0 Z " fill="#117EBD" transform="translate(96,86)"/>
<path d="M0 0 C3.63 0 7.26 0 11 0 C11.09765625 7.71484375 11.09765625 7.71484375 11 10 C10 11 10 11 7.93359375 11.09765625 C4.46679688 11.04882812 4.46679688 11.04882812 1 11 C0.67 7.37 0.34 3.74 0 0 Z " fill="#0F7DBC" transform="translate(85,59)"/>
<path d="M0 0 C0 3.96 0 7.92 0 12 C-3.3 12 -6.6 12 -10 12 C-10 8.37 -10 4.74 -10 1 C-3.375 0 -3.375 0 0 0 Z " fill="#137FBD" transform="translate(136,58)"/>
<path d="M0 0 C3.3 0 6.6 0 10 0 C10 3.63 10 7.26 10 11 C6.7 11 3.4 11 0 11 C0 7.37 0 3.74 0 0 Z " fill="#0D7CBC" transform="translate(99,59)"/>
<path d="M0 0 C0.721875 0.00257812 1.44375 0.00515625 2.1875 0.0078125 C2.909375 0.00523438 3.63125 0.00265625 4.375 0 C6.1875 0.1328125 6.1875 0.1328125 7.1875 1.1328125 C7.33007189 4.46899481 7.22978157 7.79256856 7.1875 11.1328125 C3.8875 11.1328125 0.5875 11.1328125 -2.8125 11.1328125 C-2.91015625 3.41796875 -2.91015625 3.41796875 -2.8125 1.1328125 C-1.8125 0.1328125 -1.8125 0.1328125 0 0 Z " fill="#117EBD" transform="translate(88.8125,71.8671875)"/>
<path d="M0 0 C2.97 0.99 5.94 1.98 9 3 C8.57847656 3.55429687 8.15695313 4.10859375 7.72265625 4.6796875 C7.17480469 5.40414062 6.62695312 6.12859375 6.0625 6.875 C5.51722656 7.59429687 4.97195312 8.31359375 4.41015625 9.0546875 C2.96035376 10.94357079 2.96035376 10.94357079 2 13 C-2.455 12.01 -2.455 12.01 -7 11 C-5.5140084 6.40693504 -3.14985318 3.56430755 0 0 Z " fill="#FBB244" transform="translate(56,45)"/>
<path d="M0 0 C6.75 0.75 6.75 0.75 9 3 C8.01 5.97 7.02 8.94 6 12 C3.03 12 0.06 12 -3 12 C-2.49202991 7.6822542 -1.80317221 3.96697886 0 0 Z " fill="#FBB140" transform="translate(47,58)"/>
<path d="M0 0 C1.32 2.97 2.64 5.94 4 9 C-1.625 12 -1.625 12 -5 12 C-5.67408308 10.73308493 -6.33900497 9.46129251 -7 8.1875 C-7.37125 7.47980469 -7.7425 6.77210937 -8.125 6.04296875 C-9 4 -9 4 -9 1 C-5.8035914 -0.06546953 -3.34252724 -0.07427838 0 0 Z " fill="#FBB040" transform="translate(54,101)"/>
<path d="M0 0 C2.97 0 5.94 0 9 0 C9 3.63 9 7.26 9 11 C6.69 11 4.38 11 2 11 C-0.32590854 7.36576791 -0.16265833 4.22911669 0 0 Z " fill="#137FBD" transform="translate(73,86)"/>
<path d="M0 0 C1.64630328 0.14042877 3.29204179 0.28749329 4.9375 0.4375 C6.31228516 0.55931641 6.31228516 0.55931641 7.71484375 0.68359375 C10 1 10 1 11 2 C11.04092937 4.33297433 11.04241723 6.66705225 11 9 C7.37 9 3.74 9 0 9 C0 6.03 0 3.06 0 0 Z " fill="#117EBD" transform="translate(112,47)"/>
<path d="M0 0 C2.96404505 2.80804268 5.44499019 5.18315774 7 9 C3.535 10.485 3.535 10.485 0 12 C-1.17260611 10.71372289 -2.3379283 9.42080217 -3.5 8.125 C-4.1496875 7.40570313 -4.799375 6.68640625 -5.46875 5.9453125 C-7 4 -7 4 -7 2 C-4.69 1.34 -2.38 0.68 0 0 Z " fill="#FBB040" transform="translate(59,113)"/>
<path d="M0 0 C2.31 0 4.62 0 7 0 C7 3.63 7 7.26 7 11 C4.03 11 1.06 11 -2 11 C-1.125 2.25 -1.125 2.25 0 0 Z " fill="#127EBD" transform="translate(75,72)"/>
<path d="M0 0 C1.04296581 1.30000004 2.0490313 2.6312647 3 4 C-0.22517892 6.05061678 -3.3439728 7.84853715 -7 9 C-10.07459872 8.22729768 -11.47440243 7.03145892 -14 5 C-9.9448358 0.494262 -6.08316034 -2.24116433 0 0 Z " fill="#FBB143" transform="translate(84,29)"/>
<path d="M0 0 C4.51598085 1.41930827 7.21740041 3.13527835 10 7 C10.7140632 10.99771151 10.92883941 14.94384618 11 19 C7.1570697 17.24030091 5.88803875 15.85816614 4 12 C2.90795517 9.02692102 1.9400564 6.02403685 1 3 C0.67 2.01 0.34 1.02 0 0 Z " fill="#F1634A" transform="translate(129,33)"/>
<path d="M0 0 C0.33 0 0.66 0 1 0 C1.11656783 4.20809884 1.18737611 8.41577996 1.25 12.625 C1.30027344 14.40970703 1.30027344 14.40970703 1.3515625 16.23046875 C1.47648241 27.41080041 1.47648241 27.41080041 -3 32 C-7.04822767 33.34940922 -10.77242051 33.69595879 -15 33 C-18.0625 30.5 -18.0625 30.5 -20 28 C-18.25 27.3125 -18.25 27.3125 -16 27 C-15.401875 27.495 -14.80375 27.99 -14.1875 28.5 C-11.95223836 30.34358846 -11.95223836 30.34358846 -8.4375 29.9375 C-4.70601256 28.91982161 -3.8858782 28.24790135 -2 25 C-1.67 25 -1.34 25 -1 25 C-0.67 16.75 -0.34 8.5 0 0 Z " fill="#265C99" transform="translate(259,89)"/>
<path d="M0 0 C0 2.97 0 5.94 0 9 C-3.3 9 -6.6 9 -10 9 C-10.33 6.69 -10.66 4.38 -11 2 C-7.17679443 0.57741188 -4.08718695 -0.24042276 0 0 Z " fill="#0C7BBB" transform="translate(109,47)"/>
<path d="M0 0 C2.97 0 5.94 0 9 0 C9.83848804 1.45537568 10.67063934 2.91440373 11.5 4.375 C11.9640625 5.18710937 12.428125 5.99921875 12.90625 6.8359375 C14 9 14 9 14 11 C7.05054945 11 7.05054945 11 4.1328125 8.22265625 C0 2.75508373 0 2.75508373 0 0 Z " fill="#F1624B" transform="translate(106,31)"/>
<path d="M0 0 C0.78375 0.04125 1.5675 0.0825 2.375 0.125 C3.97855101 3.63276784 4.59536864 6.26854879 4.375 10.125 C1.625 10.875 1.625 10.875 -1.625 11.125 C-4.0625 9.5 -4.0625 9.5 -5.625 7.125 C-5.42582293 2.94228155 -4.57026181 0.21763151 0 0 Z " fill="#C9EEFB" transform="translate(226.625,130.875)"/>
<path d="M0 0 C2.3125 1.9375 2.3125 1.9375 4 4 C4 4.66 4 5.32 4 6 C-5.9416498 7.60180697 -5.9416498 7.60180697 -10.1875 5.1875 C-12 3 -12 3 -12 1 C-4.21518987 -1.59493671 -4.21518987 -1.59493671 0 0 Z " fill="#FBB043" transform="translate(97,25)"/>
<path d="M0 0 C4.95 1.98 4.95 1.98 10 4 C8.5 6.5625 8.5 6.5625 6 9 C0.98683447 9 -2.27701468 8.56786093 -6 5 C-4.02 3.35 -2.04 1.7 0 0 Z " fill="#FBB348" transform="translate(80,131)"/>
<path d="M0 0 C0.66 0 1.32 0 2 0 C2 0.99 2 1.98 2 3 C2.99 3 3.98 3 5 3 C4.76228882 3.86963379 4.76228882 3.86963379 4.51977539 4.75683594 C3.71911382 8.21220398 3.62776918 11.71910303 3.4375 15.25 C3.39431641 15.99507812 3.35113281 16.74015625 3.30664062 17.5078125 C3.20103275 19.338349 3.10005799 21.16915176 3 23 C2.01 23 1.02 23 0 23 C0 15.41 0 7.82 0 0 Z " fill="#0E4C90" transform="translate(180,89)"/>
<path d="M0 0 C0.66 0 1.32 0 2 0 C6.45739172 4.56352009 7.33346517 7.53613441 7.3125 13.9375 C7.23271646 15.95944279 7.13661724 17.98110085 7 20 C3.83792562 17.64871392 2.25585572 16.30043961 1.48046875 12.359375 C1.32979955 10.44919599 1.21498107 8.53576245 1.140625 6.62109375 C1.01408239 4.26248018 0.65903753 2.25879799 0 0 Z " fill="#F26C55" transform="translate(141,42)"/>
<path d="M0 0 C0.99 0 1.98 0 3 0 C3 7.59 3 15.18 3 23 C2.01 23 1.02 23 0 23 C0 15.41 0 7.82 0 0 Z " fill="#185494" transform="translate(230,89)"/>
<path d="M0 0 C0.99 0 1.98 0 3 0 C3 7.59 3 15.18 3 23 C2.01 23 1.02 23 0 23 C0 15.41 0 7.82 0 0 Z " fill="#0D4C90" transform="translate(170,89)"/>
<path d="M0 0 C0 0.66 0 1.32 0 2 C-2.76886123 3.00577013 -5.53984104 4.00480147 -8.3125 5 C-9.49102539 5.42925781 -9.49102539 5.42925781 -10.69335938 5.8671875 C-11.45068359 6.13789062 -12.20800781 6.40859375 -12.98828125 6.6875 C-13.68477783 6.93886719 -14.38127441 7.19023438 -15.09887695 7.44921875 C-17 8 -17 8 -20 8 C-20.33 8.66 -20.66 9.32 -21 10 C-21.0234375 7.7109375 -21.0234375 7.7109375 -20 5 C-17.37456839 3.40143187 -14.54526758 2.54593406 -11.625 1.625 C-10.84382813 1.35300781 -10.06265625 1.08101563 -9.2578125 0.80078125 C-3.43272161 -1.14424054 -3.43272161 -1.14424054 0 0 Z " fill="#FDEFEA" transform="translate(72,107)"/>
<path d="M0 0 C7.75 -0.125 7.75 -0.125 10 1 C9.125 5.875 9.125 5.875 8 7 C4.5 7.125 4.5 7.125 1 7 C0 6 0 6 -0.0625 2.9375 C-0.041875 1.968125 -0.02125 0.99875 0 0 Z " fill="#F9FAFC" transform="translate(116,88)"/>
<path d="M0 0 C9.23587444 2.74349776 9.23587444 2.74349776 11.109375 5.82421875 C11.625 7.75 11.625 7.75 12 11 C3.71180348 8.86279209 3.71180348 8.86279209 0.9375 5.5 C0 3 0 3 0 0 Z " fill="#FBB046" transform="translate(116,26)"/>
<path d="M0 0 C4.34871558 0.66839841 8.04081951 2.17828361 12.0625 3.9375 C13.27035156 4.46214844 14.47820312 4.98679687 15.72265625 5.52734375 C18.18329231 6.63301693 20.60393418 7.76312812 23 9 C22.34 9 21.68 9 21 9 C20.67 9.66 20.34 10.32 20 11 C13.07 8.03 6.14 5.06 -1 2 C-0.67 1.34 -0.34 0.68 0 0 Z " fill="#FEF7F3" transform="translate(59,44)"/>
<path d="M0 0 C3 0.125 3 0.125 4 1.125 C4.07179964 2.64428038 4.08392007 4.16667482 4.0625 5.6875 C4.05347656 6.51378906 4.04445312 7.34007812 4.03515625 8.19140625 C4.02355469 8.82949219 4.01195312 9.46757812 4 10.125 C3.34 9.135 2.68 8.145 2 7.125 C-0.56282742 6.39534634 -0.56282742 6.39534634 -3 6.125 C-3.33 7.445 -3.66 8.765 -4 10.125 C-4.02689216 8.64593108 -4.04634621 7.16672517 -4.0625 5.6875 C-4.07410156 4.86378906 -4.08570313 4.04007813 -4.09765625 3.19140625 C-3.94031352 -0.13796585 -3.39108872 0.14129536 0 0 Z " fill="#B0E7FA" transform="translate(187,130.875)"/>
<path d="M0 0 C1.15757813 0.27714844 2.31515625 0.55429687 3.5078125 0.83984375 C5.04684999 1.20583437 6.58591389 1.57171391 8.125 1.9375 C8.88554688 2.11990234 9.64609375 2.30230469 10.4296875 2.49023438 C14.60428434 3.47990173 18.75459839 4.35572979 23 5 C22.34 6.32 21.68 7.64 21 9 C19.7625 8.566875 18.525 8.13375 17.25 7.6875 C11.58302782 5.78947104 5.80978785 4.38609152 0 3 C0 2.01 0 1.02 0 0 Z " fill="#FDEFE9" transform="translate(51,56)"/>
<path d="M0 0 C0 0.66 0 1.32 0 2 C-8.91 3.485 -8.91 3.485 -18 5 C-17.67 3.68 -17.34 2.36 -17 1 C-14.91835982 0.63601378 -12.83459438 0.28416713 -10.75 -0.0625 C-9.00976562 -0.35833984 -9.00976562 -0.35833984 -7.234375 -0.66015625 C-4.37477376 -0.9606216 -2.66674071 -0.9439206 0 0 Z " fill="#FEF4ED" transform="translate(64,97)"/>
<path d="M0 0 C1.43861294 0.08746284 2.87597508 0.19565348 4.3125 0.3125 C5.11300781 0.37050781 5.91351563 0.42851563 6.73828125 0.48828125 C9.4356092 1.09855752 10.40928647 1.75035012 12 4 C12 5.32 12 6.64 12 8 C11.01 8 10.02 8 9 8 C8.4225 7.360625 7.845 6.72125 7.25 6.0625 C4.29033502 3.34947377 1.92492059 3.30191697 -2 3 C-1.34 2.01 -0.68 1.02 0 0 Z " fill="#1C5796" transform="translate(367,88)"/>
<path d="M0 0 C4.43166995 1.39281055 7.06626776 3.39570039 10 7 C10.3125 9.8125 10.3125 9.8125 10 12 C2.24011713 6.87554905 2.24011713 6.87554905 0 2 C0 1.34 0 0.68 0 0 Z " fill="#FCB44B" transform="translate(129,33)"/>
<path d="M0 0 C0.66 0.33 1.32 0.66 2 1 C1 4 1 4 -1.94140625 5.60546875 C-3.73384766 6.38857422 -3.73384766 6.38857422 -5.5625 7.1875 C-6.76003906 7.71730469 -7.95757812 8.24710938 -9.19140625 8.79296875 C-10.11824219 9.19128906 -11.04507813 9.58960937 -12 10 C-11.05928821 6.8250977 -10.44251155 5.30945909 -7.6875 3.3828125 C-6.800625 2.96773438 -5.91375 2.55265625 -5 2.125 C-4.113125 1.69445312 -3.22625 1.26390625 -2.3125 0.8203125 C-1.549375 0.54960938 -0.78625 0.27890625 0 0 Z " fill="#FEF5F1" transform="translate(74,117)"/>
<path d="M0 0 C2.33524782 2.25740623 4.18705073 4.2805761 6 7 C6 7.99 6 8.98 6 10 C4.02 10 2.04 10 0 10 C0 6.7 0 3.4 0 0 Z " fill="#2B8BC3" transform="translate(139,60)"/>
<path d="M0 0 C3.3 0 6.6 0 10 0 C10 1.98 10 3.96 10 6 C5.56909529 4.79157144 3.01887244 3.48331435 0 0 Z " fill="#1580BD" transform="translate(86,113)"/>
<path d="M0 0 C1.98 0 3.96 0 6 0 C6 3.3 6 6.6 6 10 C2.51668565 6.98112756 1.20842856 4.43090471 0 0 Z " fill="#147FBD" transform="translate(76,99)"/>
<path d="M0 0 C0.66 0 1.32 0 2 0 C2 2.97 2 5.94 2 9 C0.02 9 -1.96 9 -4 9 C-2.80100302 5.9168649 -1.52299523 2.93720508 0 0 Z " fill="#1C84C0" transform="translate(80,61)"/>
<path d="M0 0 C0.66 0 1.32 0 2 0 C5.09943287 3.17457064 6.90884406 5.99728468 7.3125 10.4375 C7.209375 11.283125 7.10625 12.12875 7 13 C2.56398034 9.48177751 1.47966871 5.24609814 0 0 Z " fill="#FBB248" transform="translate(141,42)"/>
<path d="M0 0 C2 1 2 1 2.625 2.5625 C3.16368951 6.06398181 3.05903219 9.45806833 3 13 C1.68 12.34 0.36 11.68 -1 11 C-1.0270043 9.54176788 -1.04639787 8.08339325 -1.0625 6.625 C-1.07410156 5.81289063 -1.08570313 5.00078125 -1.09765625 4.1640625 C-1 2 -1 2 0 0 Z " fill="#FDE7DF" transform="translate(140,41)"/>
<path d="M0 0 C0 1.98 0 3.96 0 6 C-2.97 6 -5.94 6 -9 6 C-3.2 0 -3.2 0 0 0 Z " fill="#1681BE" transform="translate(96,50)"/>
<path d="M0 0 C4.31392226 0.4793247 6.16569547 1.7457985 9 5 C6.03 5 3.06 5 0 5 C0 3.35 0 1.7 0 0 Z " fill="#117EBD" transform="translate(126,51)"/>
<path d="M0 0 C2.3129482 2.3129482 2.49580975 3.47904875 3.125 6.625 C3.29257813 7.44226562 3.46015625 8.25953125 3.6328125 9.1015625 C3.81457031 10.04128906 3.81457031 10.04128906 4 11 C2.68 10.67 1.36 10.34 0 10 C-0.66 7.03 -1.32 4.06 -2 1 C-1.34 0.67 -0.68 0.34 0 0 Z " fill="#FDE7E1" transform="translate(130,36)"/>
<path d="M0 0 C0.99 0.33 1.98 0.66 3 1 C3.6875 3.0625 3.6875 3.0625 4 5 C3.67 5 3.34 5 3 5 C2.67 6.65 2.34 8.3 2 10 C1.34 10 0.68 10 0 10 C0 6.7 0 3.4 0 0 Z " fill="#A1E2F9" transform="translate(206,131)"/>
<path d="M0 0 C0.66 0 1.32 0 2 0 C2 3.3 2 6.6 2 10 C1.01 9.67 0.02 9.34 -1 9 C-0.67 6.03 -0.34 3.06 0 0 Z " fill="#95DFF8" transform="translate(213,131)"/>
<path d="M0 0 C2.97 0.33 5.94 0.66 9 1 C9 1.99 9 2.98 9 4 C6.36 4 3.72 4 1 4 C0.67 2.68 0.34 1.36 0 0 Z " fill="#C7DDED" transform="translate(86,55)"/>
<path d="M0 0 C2.64 0 5.28 0 8 0 C8.33 0.99 8.66 1.98 9 3 C6.36 3 3.72 3 1 3 C0.67 2.01 0.34 1.02 0 0 Z " fill="#D5E4F1" transform="translate(73,83)"/>
<path d="M0 0 C4.455 0.99 4.455 0.99 9 2 C8.01 2.495 8.01 2.495 7 3 C6.67 3.66 6.34 4.32 6 5 C3.69 4.01 1.38 3.02 -1 2 C-0.67 1.34 -0.34 0.68 0 0 Z " fill="#FDEDEB" transform="translate(73,50)"/>
<path d="M0 0 C1.32 1.32 2.64 2.64 4 4 C3.01 4.495 3.01 4.495 2 5 C1.34444881 7.52733235 1.34444881 7.52733235 1 10 C-1.56687367 6.1496895 -0.83288724 4.41430237 0 0 Z " fill="#9AE0F8" transform="translate(343,131)"/>
<path d="M0 0 C2.97 0 5.94 0 9 0 C8.67 0.99 8.34 1.98 8 3 C5.69 3 3.38 3 1 3 C0.67 2.01 0.34 1.02 0 0 Z " fill="#CADFEE" transform="translate(100,56)"/>
<path d="M0 0 C0.33 0 0.66 0 1 0 C1 3.3 1 6.6 1 10 C0.01 9.67 -0.98 9.34 -2 9 C-1.34 6.03 -0.68 3.06 0 0 Z " fill="#7CD8F7" transform="translate(350,131)"/>
</svg>
